# xmcd CD database file
# Copyright (C) 1993-1998 Ti Kan
# 
# Track frame offsets:
#     150
#     20757
#     39934
#     56596
#     78098
#     95275
#     108439
#     132326
#     150521
#     166420
#     183507
#     198267
#     219329
#     234136
#     249835
#     267712
# 
# Disc length: 3863 seconds
# 
# Revision: 1
# Processed by: cddbd v1.4b41PL1 Copyright (c) Steve Scherf et al.
# Submitted via: DiscPlay 4.0.4
# 
DISCID=c80f1510
DTITLE=Jamie - Jamie Collection #2
DYEAR=1900
DGENRE=
TTITLE0=Ben Folds Five - Brick
TTITLE1=3rd Eye Blind - Hows It Going to Be?
TTITLE2=Usher - You make me wanna
TTITLE3=LL Cool J - Father Figure
TTITLE4=Matchbox 20 - 3AM
TTITLE5=Marcy's Playground - Sex and Candy
TTITLE6=Dave Mathews Band - Crash
TTITLE7=Sarah Mclachlan - Sweet Surrender
TTITLE8=Barenaked Ladies - Old Apartment
TTITLE9=OMC - How Bizarre
TTITLE10=Mighty Mighty BT- Impression that I Get
TTITLE11=ChumbaWumba - Tubthumping
TTITLE12=PWEI - Wise up Sucker
TTITLE13=Smashmouth- Walking On The Sun
TTITLE14=Morrissey - Giving
TTITLE15=David Bowie - Black Tie - White Noise
EXTD=
EXTT0=
EXTT1=
EXTT2=
EXTT3=
EXTT4=
EXTT5=
EXTT6=
EXTT7=
EXTT8=
EXTT9=
EXTT10=
EXTT11=
EXTT12=
EXTT13=
EXTT14=
EXTT15=
PLAYORDER=
